REM DIRINDEX 1\3,1\5,1\6,1\2\7,1\2\8,1\4\9,1\4\10
REM DIRNAME folder01,folder02,folder03,folder04,folder05,folder06,folder07,folder08,folder09,folder10
TITLE ""
FILE "CD2Track27.mp3" MP3
  TRACK 01 AUDIO
    TITLE "9:cjc060_1771"
    INDEX 01 00:00:00
  TRACK 02 AUDIO
    TITLE "10:cjc060_1772"
    INDEX 01 00:01:28
  TRACK 03 AUDIO
    TITLE "9:cjc060_1773"
    INDEX 01 00:05:36
  TRACK 04 AUDIO
    TITLE "10:cjc060_1774"
    INDEX 01 00:06:59
  TRACK 05 AUDIO
    TITLE "9:cjc060_1775"
    INDEX 01 00:10:43
  TRACK 06 AUDIO
    TITLE "10:cjc060_1776"
    INDEX 01 00:11:74
  TRACK 07 AUDIO
    TITLE "9:cjc060_1777"
    INDEX 01 00:16:12
  TRACK 08 AUDIO
    TITLE "10:cjc060_1778"
    INDEX 01 00:17:29
  TRACK 09 AUDIO
    TITLE "9:cjc060_1779"
    INDEX 01 00:20:73
  TRACK 10 AUDIO
    TITLE "10:cjc060_1780"
    INDEX 01 00:22:30
  TRACK 11 AUDIO
    TITLE "10:cjc060_1781"
    INDEX 01 00:26:22
  TRACK 12 AUDIO
    TITLE "9:cjc060_1782"
    INDEX 01 00:31:37
  TRACK 13 AUDIO
    TITLE "10:cjc060_1783"
    INDEX 01 00:32:68
  TRACK 14 AUDIO
    TITLE "9:cjc060_1784"
    INDEX 01 00:36:23
  TRACK 15 AUDIO
    TITLE "10:cjc060_1785"
    INDEX 01 00:38:08
  TRACK 16 AUDIO
    TITLE "9:cjc060_1786"
    INDEX 01 00:41:57
  TRACK 17 AUDIO
    TITLE "10:cjc060_1787"
    INDEX 01 00:43:11
  TRACK 18 AUDIO
    TITLE "10:cjc060_1788"
    INDEX 01 00:46:11
  TRACK 19 AUDIO
    TITLE "9:cjc060_1789"
    INDEX 01 00:49:57
  TRACK 20 AUDIO
    TITLE "10:cjc060_1790"
    INDEX 01 00:51:13
  TRACK 21 AUDIO
    TITLE "9:cjc060_1791"
    INDEX 01 00:55:20
  TRACK 22 AUDIO
    TITLE "10:cjc060_1792"
    INDEX 01 00:56:53
  TRACK 23 AUDIO
    TITLE "9:cjc060_1793"
    INDEX 01 01:00:17
  TRACK 24 AUDIO
    TITLE "10:cjc060_1794"
    INDEX 01 01:01:54
  TRACK 25 AUDIO
    TITLE "9:cjc060_1795"
    INDEX 01 01:05:01
  TRACK 26 AUDIO
    TITLE "10:cjc060_1796"
    INDEX 01 01:06:22
  TRACK 27 AUDIO
    TITLE "9:cjc060_1797"
    INDEX 01 01:10:12
  TRACK 28 AUDIO
    TITLE "10:cjc060_1798"
    INDEX 01 01:11:33
  TRACK 29 AUDIO
    TITLE "9:cjc060_1799"
    INDEX 01 01:15:39
  TRACK 30 AUDIO
    TITLE "10:cjc060_1800"
    INDEX 01 01:17:12
  TRACK 31 AUDIO
    TITLE "9:cjc060_1801"
    INDEX 01 01:20:55
  TRACK 32 AUDIO
    TITLE "10:cjc060_1802"
    INDEX 01 01:22:31
  TRACK 33 AUDIO
    TITLE "9:cjc060_1803"
    INDEX 01 01:27:14
  TRACK 34 AUDIO
    TITLE "10:cjc060_1804"
    INDEX 01 01:28:35
  TRACK 35 AUDIO
    TITLE "9:cjc060_1805"
    INDEX 01 01:31:55
  TRACK 36 AUDIO
    TITLE "10:cjc060_1806"
    INDEX 01 01:34:44
  TRACK 37 AUDIO
    TITLE "9:cjc060_1807"
    INDEX 01 01:39:15
  TRACK 38 AUDIO
    TITLE "10:cjc060_1808"
    INDEX 01 01:40:38
  TRACK 39 AUDIO
    TITLE "9:cjc060_1809"
    INDEX 01 01:45:44
  TRACK 40 AUDIO
    TITLE "10:cjc060_1810"
    INDEX 01 01:47:37
  TRACK 41 AUDIO
    TITLE "10:cjc060_1811"
    INDEX 01 01:51:32
  TRACK 42 AUDIO
    TITLE "9:cjc060_1812"
    INDEX 01 01:55:20
  TRACK 43 AUDIO
    TITLE "10:cjc060_1813"
    INDEX 01 01:56:45
  TRACK 44 AUDIO
    TITLE "9:cjc060_1814"
    INDEX 01 02:00:10
  TRACK 45 AUDIO
    TITLE "10:cjc060_1815"
    INDEX 01 02:01:33
  TRACK 46 AUDIO
    TITLE "9:cjc060_1816"
    INDEX 01 02:05:21
  TRACK 47 AUDIO
    TITLE "10:cjc060_1817"
    INDEX 01 02:06:40
  TRACK 48 AUDIO
    TITLE "9:cjc060_1818"
    INDEX 01 02:10:26
  TRACK 49 AUDIO
    TITLE "10:cjc060_1819"
    INDEX 01 02:11:43
  TRACK 50 AUDIO
    TITLE "9:cjc060_1820"
    INDEX 01 02:15:68
  TRACK 51 AUDIO
    TITLE "10:cjc060_1821"
    INDEX 01 02:17:12
  TRACK 52 AUDIO
    TITLE "9:cjc060_1822"
    INDEX 01 02:20:18
  TRACK 53 AUDIO
    TITLE "10:cjc060_1823"
    INDEX 01 02:21:37
  TRACK 54 AUDIO
    TITLE "10:cjc060_1824"
    INDEX 01 02:23:50
  TRACK 55 AUDIO
    TITLE "9:cjc060_1825"
    INDEX 01 02:26:72
  TRACK 56 AUDIO
    TITLE "10:cjc060_1826"
    INDEX 01 02:28:26
  TRACK 57 AUDIO
    TITLE "10:cjc060_1827"
    INDEX 01 02:31:26
  TRACK 58 AUDIO
    TITLE "9:cjc060_1828"
    INDEX 01 02:34:56
  TRACK 59 AUDIO
    TITLE "10:cjc060_1829"
    INDEX 01 02:36:06
  TRACK 60 AUDIO
    TITLE "9:cjc060_1830"
    INDEX 01 02:40:13
  TRACK 61 AUDIO
    TITLE "10:cjc060_1831"
    INDEX 01 02:41:40
  TRACK 62 AUDIO
    TITLE "9:cjc060_1832"
    INDEX 01 02:45:36
  TRACK 63 AUDIO
    TITLE "10:cjc060_1833"
    INDEX 01 02:47:00
  TRACK 64 AUDIO
    TITLE "9:cjc060_1834"
    INDEX 01 02:50:00
  TRACK 65 AUDIO
    TITLE "10:cjc060_1835"
    INDEX 01 02:51:17
  TRACK 66 AUDIO
    TITLE "9:cjc060_1836"
    INDEX 01 02:55:32
  TRACK 67 AUDIO
    TITLE "10:cjc060_1837"
    INDEX 01 02:56:51
  TRACK 68 AUDIO
    TITLE "9:cjc060_1838"
    INDEX 01 03:01:04
  TRACK 69 AUDIO
    TITLE "10:cjc060_1839"
    INDEX 01 03:02:32
  TRACK 70 AUDIO
    TITLE "9:cjc060_1840"
    INDEX 01 03:05:56
  TRACK 71 AUDIO
    TITLE "10:cjc060_1841"
    INDEX 01 03:07:10
  TRACK 72 AUDIO
    TITLE "9:cjc060_1842"
    INDEX 01 03:11:06
  TRACK 73 AUDIO
    TITLE "10:cjc060_1843"
    INDEX 01 03:12:31
  TRACK 74 AUDIO
    TITLE "9:cjc060_1844"
    INDEX 01 03:15:19
  TRACK 75 AUDIO
    TITLE "10:cjc060_1845"
    INDEX 01 03:16:60
  TRACK 76 AUDIO
    TITLE "9:cjc060_1846"
    INDEX 01 03:21:26
  TRACK 77 AUDIO
    TITLE "10:cjc060_1847"
    INDEX 01 03:22:53
  TRACK 78 AUDIO
    TITLE "9:cjc060_1848"
    INDEX 01 03:26:33
  TRACK 79 AUDIO
    TITLE "10:cjc060_1849"
    INDEX 01 03:27:62
  TRACK 80 AUDIO
    TITLE "9:cjc060_1850"
    INDEX 01 03:31:32
  TRACK 81 AUDIO
    TITLE "10:cjc060_1851"
    INDEX 01 03:32:63
  TRACK 82 AUDIO
    TITLE "9:cjc060_1852"
    INDEX 01 03:36:18
  TRACK 83 AUDIO
    TITLE "10:cjc060_1853"
    INDEX 01 03:37:50
  TRACK 84 AUDIO
    TITLE "9:cjc060_1854"
    INDEX 01 03:41:38
  TRACK 85 AUDIO
    TITLE "10:cjc060_1855"
    INDEX 01 03:42:63
  TRACK 86 AUDIO
    TITLE "9:cjc060_1856"
    INDEX 01 03:45:56
  TRACK 87 AUDIO
    TITLE "10:cjc060_1857"
    INDEX 01 03:47:27
  TRACK 88 AUDIO
    TITLE "9:cjc060_1858"
    INDEX 01 03:52:38
  TRACK 89 AUDIO
    TITLE "10:cjc060_1859"
    INDEX 01 03:54:04
  TRACK 90 AUDIO
    TITLE "10:cjc060_1860"
    INDEX 01 03:56:52
  TRACK 91 AUDIO
    TITLE "9:cjc060_1861"
    INDEX 01 03:59:64
  TRACK 92 AUDIO
    TITLE "10:cjc060_1862"
    INDEX 01 04:01:10
  TRACK 93 AUDIO
    TITLE "9:cjc060_1863"
    INDEX 01 04:04:41
  TRACK 94 AUDIO
    TITLE "10:cjc060_1864"
    INDEX 01 04:05:68
  TRACK 95 AUDIO
    TITLE "9:cjc060_1865"
    INDEX 01 04:09:31
  TRACK 96 AUDIO
    TITLE "10:cjc060_1866"
    INDEX 01 04:10:60
  TRACK 97 AUDIO
    TITLE "9:cjc060_1867"
    INDEX 01 04:14:71
  TRACK 98 AUDIO
    TITLE "10:cjc060_1868"
    INDEX 01 04:16:23
  TRACK 99 AUDIO
    TITLE "9:cjc060_1869"
    INDEX 01 04:19:35
  TRACK 100 AUDIO
    TITLE "10:cjc060_1870"
    INDEX 01 04:20:54
  TRACK 101 AUDIO
    TITLE "9:cjc060_1871"
    INDEX 01 04:24:40
  TRACK 102 AUDIO
    TITLE "10:cjc060_1872"
    INDEX 01 04:25:65
  TRACK 103 AUDIO
    TITLE "9:cjc060_1873"
    INDEX 01 04:29:59
  TRACK 104 AUDIO
    TITLE "10:cjc060_1874"
    INDEX 01 04:31:17
  TRACK 105 AUDIO
    TITLE "9:cjc060_1875"
    INDEX 01 04:35:50
  TRACK 106 AUDIO
    TITLE "10:cjc060_1876"
    INDEX 01 04:36:71
  TRACK 107 AUDIO
    TITLE "10:cjc060_1877"
    INDEX 01 04:39:65
  TRACK 108 AUDIO
    TITLE "9:cjc060_1878"
    INDEX 01 04:43:45
  TRACK 109 AUDIO
    TITLE "10:cjc060_1879"
    INDEX 01 04:44:70
  TRACK 110 AUDIO
    TITLE "9:cjc060_1880"
    INDEX 01 04:48:00
  TRACK 111 AUDIO
    TITLE "10:cjc060_1881"
    INDEX 01 04:49:20
  TRACK 112 AUDIO
    TITLE "9:cjc060_1882"
    INDEX 01 04:52:29
  TRACK 113 AUDIO
    TITLE "10:cjc060_1883"
    INDEX 01 04:53:57
  TRACK 114 AUDIO
    TITLE "9:cjc060_1884"
    INDEX 01 04:57:59
  TRACK 115 AUDIO
    TITLE "10:cjc060_1885"
    INDEX 01 04:59:11
  TRACK 116 AUDIO
    TITLE "9:cjc060_1886"
    INDEX 01 05:03:09
  TRACK 117 AUDIO
    TITLE "10:cjc060_1887"
    INDEX 01 05:04:32
  TRACK 118 AUDIO
    TITLE "9:cjc060_1888"
    INDEX 01 05:08:71
  TRACK 119 AUDIO
    TITLE "10:cjc060_1889"
    INDEX 01 05:10:25
  TRACK 120 AUDIO
    TITLE "9:cjc060_1890"
    INDEX 01 05:14:07
  TRACK 121 AUDIO
    TITLE "10:cjc060_1891"
    INDEX 01 05:15:36
  TRACK 122 AUDIO
    TITLE "9:cjc060_1892"
    INDEX 01 05:19:57
  TRACK 123 AUDIO
    TITLE "10:cjc060_1893"
    INDEX 01 05:21:07
  TRACK 124 AUDIO
    TITLE "0:"
    INDEX 01 05:24:17
